<?xml version="1.0" standalone="no"?>
<!DOCTYPE svg PUBLIC "-//W3C//DTD SVG 20010904//EN"
 "http://www.w3.org/TR/2001/REC-SVG-20010904/DTD/svg10.dtd">
<svg version="1.0" xmlns="http://www.w3.org/2000/svg"
 width="1155.000000pt" height="1155.000000pt" viewBox="0 0 1155.000000 1155.000000"
 preserveAspectRatio="xMidYMid meet">
<metadata>
Created by potrace 1.11, written by Peter Selinger 2001-2013
</metadata>
<g transform="translate(0.000000,1155.000000) scale(0.100000,-0.100000)"
fill="#000000" stroke="none">
<path d="M8937 11525 c-1 -2 -42 -5 -92 -9 -83 -5 -105 -8 -175 -21 -14 -3
-43 -7 -65 -11 -107 -15 -307 -75 -450 -135 -202 -84 -436 -228 -599 -369 -87
-75 -287 -287 -310 -328 -5 -10 -13 -19 -16 -22 -16 -11 -120 -171 -172 -265
-75 -134 -141 -291 -188 -448 -22 -71 -41 -132 -44 -134 -2 -3 -46 9 -98 25
-92 30 -319 90 -368 98 -14 3 -54 11 -90 19 -79 17 -227 42 -295 50 -27 3 -61
8 -75 10 -14 3 -52 7 -85 10 -33 4 -76 8 -95 10 -195 23 -710 23 -895 0 -16
-2 -57 -6 -90 -9 -107 -11 -178 -21 -320 -47 -156 -27 -163 -28 -235 -45 -36
-9 -72 -17 -80 -19 -401 -94 -883 -282 -1250 -488 -188 -106 -284 -167 -503
-319 -234 -163 -573 -468 -782 -702 -38 -44 -75 -84 -80 -90 -27 -28 -149
-181 -217 -271 -128 -171 -306 -450 -390 -610 -122 -232 -184 -368 -261 -566
-50 -127 -105 -284 -111 -314 -2 -11 -9 -33 -16 -50 -11 -29 -94 -344 -103
-395 -27 -142 -58 -315 -62 -355 -4 -27 -8 -60 -10 -73 -2 -13 -7 -53 -10 -90
-4 -37 -8 -78 -10 -90 -23 -145 -23 -664 0 -897 11 -105 24 -220 30 -255 2
-14 11 -68 20 -120 15 -98 17 -106 36 -200 59 -293 200 -731 327 -1010 29 -65
156 -322 172 -350 5 -8 41 -71 81 -140 105 -182 285 -447 391 -575 9 -11 40
-50 70 -86 150 -185 408 -447 597 -607 69 -58 128 -109 131 -112 3 -3 57 -44
120 -91 538 -401 1124 -683 1755 -844 94 -24 206 -50 250 -59 44 -8 91 -18
105 -21 13 -2 42 -7 65 -10 61 -9 97 -15 125 -20 14 -3 45 -7 70 -10 25 -2 65
-7 90 -10 152 -18 343 -28 550 -28 159 0 393 9 437 17 10 2 54 7 97 11 43 4
86 8 95 10 9 1 39 6 66 9 66 9 192 31 285 50 41 8 87 18 103 21 57 11 75 15
202 50 608 166 1153 425 1640 779 78 57 237 179 275 213 14 12 36 31 50 43
137 115 348 322 460 449 36 41 70 79 75 85 34 37 150 183 201 251 32 44 62 82
65 85 7 6 149 216 165 245 6 11 36 61 66 110 65 106 98 166 165 295 43 83 67
136 143 305 16 35 53 128 105 265 59 155 165 526 194 680 6 30 13 66 16 80 10
49 29 163 40 245 3 28 8 61 10 75 42 271 50 723 21 1065 -7 78 -17 170 -21
195 -2 14 -7 45 -10 70 -3 25 -13 83 -20 130 -16 91 -19 108 -35 185 -6 28
-12 59 -14 70 -3 16 -52 205 -71 275 -52 194 -163 497 -256 698 -16 35 -29 66
-29 70 0 4 24 16 53 26 80 29 232 103 332 164 421 254 757 652 933 1104 38 98
77 214 86 262 5 22 10 43 20 86 3 14 8 36 10 50 2 14 7 41 10 60 3 19 8 49 11
65 24 142 24 456 1 595 -3 14 -7 43 -11 64 -4 33 -19 107 -40 199 -48 214
-196 535 -343 742 -118 166 -323 378 -477 493 -336 252 -728 404 -1150 447
-59 6 -293 14 -298 10z"/>
</g>
</svg>
